<!-- Generated by IcoMoon.io -->
<svg version="1.1" xmlns="http://www.w3.org/2000/svg" width="36" height="32" viewBox="0 0 36 32">
<title>twitter</title>
<path fill="#afb1b8" d="M35.556 4.976c-1.222 0.548-2.64 0.952-4.125 1.142l-0.076 0.008c1.511-0.907 2.646-2.309 3.193-3.977l0.015-0.051c-1.331 0.803-2.879 1.415-4.529 1.748l-0.093 0.016c-1.333-1.421-3.223-2.306-5.319-2.306-4.025 0-7.287 3.263-7.287 7.287 0 0.001 0 0.003 0 0.004v-0c0 0.578 0.048 1.134 0.169 1.662-6.060-0.295-11.422-3.2-15.024-7.623-0.627 1.055-0.999 2.324-1.003 3.681v0.001c0 2.524 1.301 4.763 3.237 6.059-1.212-0.033-2.341-0.361-3.327-0.915l0.036 0.019v0.080c0.005 3.515 2.486 6.449 5.792 7.152l0.048 0.009c-0.556 0.153-1.195 0.24-1.854 0.24-0.020 0-0.040-0-0.061-0l0.003 0c-0.466 0-0.937-0.027-1.38-0.124 0.944 2.887 3.623 5.010 6.811 5.077-2.461 1.94-5.606 3.111-9.025 3.111-0.005 0-0.009 0-0.014 0h0.001c-0.020 0-0.045 0-0.069 0-0.59 0-1.172-0.038-1.743-0.11l0.068 0.007c3.14 2.051 6.986 3.271 11.116 3.271 0.023 0 0.047-0 0.070-0h-0.004c13.413 0 20.747-11.111 20.747-20.743 0-0.32-0.011-0.633-0.027-0.942 1.443-1.040 2.656-2.293 3.62-3.727l0.033-0.052z"></path>
</svg>
