<svg xmlns="http://www.w3.org/2000/svg" version="1.1" xmlns:xlink="http://www.w3.org/1999/xlink" xmlns:svgjs="http://svgjs.dev/svgjs" width="2000" height="1247" viewBox="0 0 2000 1247"><g transform="matrix(1,0,0,1,-1.2121212121212466,0.504858299595071)"><svg viewBox="0 0 396 247" data-background-color="#ffffff" preserveAspectRatio="xMidYMid meet" height="1247" width="2000" xmlns="http://www.w3.org/2000/svg" xmlns:xlink="http://www.w3.org/1999/xlink"><g id="tight-bounds" transform="matrix(1,0,0,1,0.2400000000000091,-0.09999999999999432)"><svg viewBox="0 0 395.52 247.2" height="247.2" width="395.52"><g><svg></svg></g><g><svg viewBox="0 0 395.52 247.2" height="247.2" width="395.52"><g transform="matrix(1,0,0,1,75.54432,110.7891320754717)"><svg viewBox="0 0 244.43135999999998 25.6217358490566" height="25.6217358490566" width="244.43135999999998"><g><svg viewBox="0 0 244.43135999999998 25.6217358490566" height="25.6217358490566" width="244.43135999999998"><g><svg viewBox="0 0 244.43135999999998 25.6217358490566" height="25.6217358490566" width="244.43135999999998"><g><svg viewBox="0 0 244.43135999999998 25.6217358490566" height="25.6217358490566" width="244.43135999999998"><g id="textblocktransform"><svg viewBox="0 0 244.43135999999998 25.6217358490566" height="25.6217358490566" width="244.43135999999998" id="textblock"><g><svg viewBox="0 0 244.43135999999998 25.6217358490566" height="25.6217358490566" width="244.43135999999998"><g transform="matrix(1,0,0,1,0,0)"><svg width="244.43135999999998" viewBox="4.2 -37.5 453.12 47.5" height="25.6217358490566" data-palette-color="#89939e"><path d="M9.2-35L9.2 0 4.2 0 4.2-35 9.2-35ZM22-22.5L22 0 17 0 17-27.5 35.75-27.5Q38.6-27.5 41.07-26.43 43.55-25.35 45.42-23.45 47.3-21.55 48.35-19.07 49.4-16.6 49.4-13.75L49.4-13.75 49.4 0 44.4 0 44.4-13.75Q44.4-16.15 43.25-18.13 42.1-20.1 40.12-21.3 38.15-22.5 35.75-22.5L35.75-22.5 22-22.5ZM65.8-22.5L65.8 0 60.8 0 60.8-22.5 53.3-22.5 53.3-27.5 60.8-27.5 60.8-37.5 65.8-37.5 65.8-27.5 83.3-27.5 83.3-22.5 65.8-22.5ZM119.24-18.75L119.24-18.75Q119.24-16.35 118.07-14.35 116.89-12.35 114.92-11.18 112.94-10 110.49-10L110.49-10 91.34-10Q92.39-7.8 94.47-6.4 96.54-5 99.14-5L99.14-5 115.49-5 115.49 0 99.14 0Q96.29 0 93.82-1.07 91.34-2.15 89.47-4.05 87.59-5.95 86.54-8.43 85.49-10.9 85.49-13.75L85.49-13.75Q85.49-16.6 86.54-19.07 87.59-21.55 89.47-23.45 91.34-25.35 93.82-26.43 96.29-27.5 99.14-27.5L99.14-27.5 110.49-27.5Q112.94-27.5 114.92-26.33 116.89-25.15 118.07-23.18 119.24-21.2 119.24-18.75ZM90.59-15L110.49-15Q112.04-15 113.14-16.1 114.24-17.2 114.24-18.75L114.24-18.75Q114.24-20.3 113.14-21.4 112.04-22.5 110.49-22.5L110.49-22.5 99.14-22.5Q96.94-22.5 95.12-21.5 93.29-20.5 92.09-18.8 90.89-17.1 90.59-15L90.59-15ZM151.44-27.5L151.44-22.5 132.69-22.5Q131.14-22.5 130.04-21.4 128.94-20.3 128.94-18.75L128.94-18.75 128.94 0 123.94 0 123.94-18.75Q123.94-21.2 125.12-23.18 126.29-25.15 128.29-26.33 130.29-27.5 132.69-27.5L132.69-27.5 151.44-27.5ZM161.74-33.75L161.74-33.75Q161.74-32.2 160.64-31.1 159.54-30 157.99-30L157.99-30Q156.44-30 155.34-31.1 154.24-32.2 154.24-33.75L154.24-33.75Q154.24-35.3 155.34-36.4 156.44-37.5 157.99-37.5L157.99-37.5Q159.54-37.5 160.64-36.4 161.74-35.3 161.74-33.75ZM160.49-27.5L160.49 0 155.49 0 155.49-27.5 160.49-27.5ZM200.94-13.75L200.94-13.75Q200.94-10.9 199.89-8.43 198.84-5.95 196.96-4.05 195.09-2.15 192.61-1.07 190.14 0 187.29 0L187.29 0 179.59 0Q176.74 0 174.26-1.07 171.78-2.15 169.91-4.05 168.03-5.95 166.99-8.43 165.94-10.9 165.94-13.75L165.94-13.75Q165.94-16.6 166.99-19.07 168.03-21.55 169.91-23.45 171.78-25.35 174.26-26.43 176.74-27.5 179.59-27.5L179.59-27.5 187.29-27.5Q190.14-27.5 192.61-26.43 195.09-25.35 196.96-23.45 198.84-21.55 199.89-19.07 200.94-16.6 200.94-13.75ZM195.94-13.75L195.94-13.75Q195.94-16.15 194.79-18.13 193.64-20.1 191.66-21.3 189.69-22.5 187.29-22.5L187.29-22.5 179.59-22.5Q177.19-22.5 175.24-21.3 173.28-20.1 172.11-18.13 170.94-16.15 170.94-13.75L170.94-13.75Q170.94-11.35 172.11-9.38 173.28-7.4 175.24-6.2 177.19-5 179.59-5L179.59-5 187.29-5Q189.69-5 191.66-6.2 193.64-7.4 194.79-9.38 195.94-11.35 195.94-13.75ZM233.68-27.5L233.68-22.5 214.93-22.5Q213.38-22.5 212.28-21.4 211.18-20.3 211.18-18.75L211.18-18.75 211.18 0 206.18 0 206.18-18.75Q206.18-21.2 207.36-23.18 208.53-25.15 210.53-26.33 212.53-27.5 214.93-27.5L214.93-27.5 233.68-27.5ZM298.33-17.5L298.33-17.5Q298.33-13.85 297.18-10.68 296.03-7.5 293.9-5.1 291.78-2.7 288.8-1.35 285.83 0 282.23 0L282.23 0 264.58 0 264.58-5 282.23-5Q285.68-5 288.18-6.7 290.68-8.4 292-11.23 293.33-14.05 293.33-17.5L293.33-17.5Q293.33-20.95 292-23.8 290.68-26.65 288.18-28.33 285.68-30 282.23-30L282.23-30 262.08-30 262.08 0 257.08 0 257.08-35 282.23-35Q285.83-35 288.8-33.65 291.78-32.3 293.9-29.88 296.03-27.45 297.18-24.28 298.33-21.1 298.33-17.5ZM336.13-18.75L336.13-18.75Q336.13-16.35 334.95-14.35 333.78-12.35 331.8-11.18 329.83-10 327.38-10L327.38-10 308.23-10Q309.28-7.8 311.35-6.4 313.43-5 316.03-5L316.03-5 332.38-5 332.38 0 316.03 0Q313.18 0 310.7-1.07 308.23-2.15 306.35-4.05 304.48-5.95 303.43-8.43 302.38-10.9 302.38-13.75L302.38-13.75Q302.38-16.6 303.43-19.07 304.48-21.55 306.35-23.45 308.23-25.35 310.7-26.43 313.18-27.5 316.03-27.5L316.03-27.5 327.38-27.5Q329.83-27.5 331.8-26.33 333.78-25.15 334.95-23.18 336.13-21.2 336.13-18.75ZM307.48-15L327.38-15Q328.93-15 330.03-16.1 331.13-17.2 331.13-18.75L331.13-18.75Q331.13-20.3 330.03-21.4 328.93-22.5 327.38-22.5L327.38-22.5 316.03-22.5Q313.83-22.5 312-21.5 310.18-20.5 308.98-18.8 307.78-17.1 307.48-15L307.48-15ZM369.72-8.75L369.72-8.75Q369.72-6.3 368.55-4.33 367.37-2.35 365.4-1.18 363.42 0 360.97 0L360.97 0 339.72 0 339.72-5 360.97-5Q362.52-5 363.62-6.1 364.72-7.2 364.72-8.75L364.72-8.75Q364.72-10.3 363.62-11.4 362.52-12.5 360.97-12.5L360.97-12.5 347.22-12.5Q345.17-12.5 343.45-13.5 341.72-14.5 340.72-16.23 339.72-17.95 339.72-20L339.72-20Q339.72-22.1 340.72-23.8 341.72-25.5 343.45-26.5 345.17-27.5 347.22-27.5L347.22-27.5 367.22-27.5 367.22-22.5 347.22-22.5Q346.17-22.5 345.45-21.78 344.72-21.05 344.72-20L344.72-20Q344.72-18.95 345.45-18.23 346.17-17.5 347.22-17.5L347.22-17.5 360.97-17.5Q363.42-17.5 365.4-16.32 367.37-15.15 368.55-13.18 369.72-11.2 369.72-8.75ZM381.12-33.75L381.12-33.75Q381.12-32.2 380.02-31.1 378.92-30 377.37-30L377.37-30Q375.82-30 374.72-31.1 373.62-32.2 373.62-33.75L373.62-33.75Q373.62-35.3 374.72-36.4 375.82-37.5 377.37-37.5L377.37-37.5Q378.92-37.5 380.02-36.4 381.12-35.3 381.12-33.75ZM379.87-27.5L379.87 0 374.87 0 374.87-27.5 379.87-27.5ZM417.72-27.5L417.72 1.25Q417.72 3.65 416.54 5.65 415.37 7.65 413.37 8.83 411.37 10 408.97 10L408.97 10 388.97 10 388.97 5 408.97 5Q410.52 5 411.62 3.9 412.72 2.8 412.72 1.25L412.72 1.25 412.72-22.5 398.97-22.5Q396.57-22.5 394.62-21.3 392.67-20.1 391.49-18.13 390.32-16.15 390.32-13.75L390.32-13.75Q390.32-11.35 391.49-9.38 392.67-7.4 394.62-6.23 396.57-5.05 398.97-5L398.97-5 410.22-5 410.22 0 398.97 0Q396.12 0 393.64-1.07 391.17-2.15 389.29-4.05 387.42-5.95 386.37-8.43 385.32-10.9 385.32-13.75L385.32-13.75Q385.32-16.6 386.37-19.07 387.42-21.55 389.29-23.45 391.17-25.35 393.64-26.43 396.12-27.5 398.97-27.5L398.97-27.5 417.72-27.5ZM429.92-22.5L429.92 0 424.92 0 424.92-27.5 443.67-27.5Q446.52-27.5 448.99-26.43 451.47-25.35 453.34-23.45 455.22-21.55 456.27-19.07 457.32-16.6 457.32-13.75L457.32-13.75 457.32 0 452.32 0 452.32-13.75Q452.32-16.15 451.17-18.13 450.02-20.1 448.04-21.3 446.07-22.5 443.67-22.5L443.67-22.5 429.92-22.5Z" opacity="1" transform="matrix(1,0,0,1,0,0)" fill="#89939e" class="wordmark-text-0" data-fill-palette-color="primary" id="text-0"></path></svg></g></svg></g></svg></g></svg></g></svg></g></svg></g></svg></g><path d="M172.259 104.789L172.259 39.866 4.791 39.866 4.791 207.334 172.259 207.334 172.259 142.411 169.949 142.411 169.949 205.023 7.102 205.023 7.102 42.177 169.949 42.177 169.949 104.789Z" fill="#6f8658" stroke="transparent" data-fill-palette-color="tertiary"></path></svg></g><defs></defs></svg><rect width="395.52" height="247.2" fill="none" stroke="none" visibility="hidden"></rect></g></svg></g></svg>
